<?xml version="1.0" encoding="UTF-8" standalone="no"?>
<!DOCTYPE svg PUBLIC "-//W3C//DTD SVG 1.1//EN" "http://www.w3.org/Graphics/SVG/1.1/DTD/svg11.dtd">
<svg xmlns="http://www.w3.org/2000/svg" xmlns:xlink="http://www.w3.org/1999/xlink" version="1.1" width="127.5591pt" height="85.03937pt" viewBox="0 0 127.5591 85.03937">
<g enable-background="new">
<path transform="matrix(1,0,0,-1,0,85.03937)" d="M 0 0 L 127.5591 0 L 127.5591 85.03937 L 0 85.03937 Z " fill="#ffffff" fill-rule="evenodd"/>
<path transform="matrix(1,0,0,-1,18,80.03937)" d="M 8.418898 0 L 9.354331 0 L 9.354331 73.50236 L 8.418898 73.50236 Z " fill-rule="evenodd"/>
<path transform="matrix(1,0,0,-1,18,80.03937)" d="M 10.28976 0 L 11.225193 0 L 11.225193 73.50236 L 10.28976 73.50236 Z " fill-rule="evenodd"/>
<path transform="matrix(1,0,0,-1,18,80.03937)" d="M 14.0315 9.6 L 15.902366 9.6 L 15.902366 73.50236 L 14.0315 73.50236 Z " fill-rule="evenodd"/>
<path transform="matrix(1,0,0,-1,18,80.03937)" d="M 16.8378 9.6 L 17.773232 9.6 L 17.773232 73.50236 L 16.8378 73.50236 Z " fill-rule="evenodd"/>
<path transform="matrix(1,0,0,-1,18,80.03937)" d="M 20.57953 9.6 L 22.450398 9.6 L 22.450398 73.50236 L 20.57953 73.50236 Z " fill-rule="evenodd"/>
<path transform="matrix(1,0,0,-1,18,80.03937)" d="M 23.38583 9.6 L 24.321263 9.6 L 24.321263 73.50236 L 23.38583 73.50236 Z " fill-rule="evenodd"/>
<path transform="matrix(1,0,0,-1,18,80.03937)" d="M 27.12756 9.6 L 28.998427 9.6 L 28.998427 73.50236 L 27.12756 73.50236 Z " fill-rule="evenodd"/>
<path transform="matrix(1,0,0,-1,18,80.03937)" d="M 29.93386 9.6 L 30.869294 9.6 L 30.869294 73.50236 L 29.93386 73.50236 Z " fill-rule="evenodd"/>
<path transform="matrix(1,0,0,-1,18,80.03937)" d="M 33.67559 9.6 L 35.546457 9.6 L 35.546457 73.50236 L 33.67559 73.50236 Z " fill-rule="evenodd"/>
<path transform="matrix(1,0,0,-1,18,80.03937)" d="M 36.48189 9.6 L 37.417325 9.6 L 37.417325 73.50236 L 36.48189 73.50236 Z " fill-rule="evenodd"/>
<path transform="matrix(1,0,0,-1,18,80.03937)" d="M 40.22362 9.6 L 42.094488 9.6 L 42.094488 73.50236 L 40.22362 73.50236 Z " fill-rule="evenodd"/>
<path transform="matrix(1,0,0,-1,18,80.03937)" d="M 43.02992 9.6 L 43.96535 9.6 L 43.96535 73.50236 L 43.02992 73.50236 Z " fill-rule="evenodd"/>
<path transform="matrix(1,0,0,-1,18,80.03937)" d="M 46.77165 9.6 L 48.642515 9.6 L 48.642515 73.50236 L 46.77165 73.50236 Z " fill-rule="evenodd"/>
<path transform="matrix(1,0,0,-1,18,80.03937)" d="M 49.57795 9.6 L 50.513383 9.6 L 50.513383 73.50236 L 49.57795 73.50236 Z " fill-rule="evenodd"/>
<path transform="matrix(1,0,0,-1,18,80.03937)" d="M 51.44882 0 L 52.38425 0 L 52.38425 73.50236 L 51.44882 73.50236 Z " fill-rule="evenodd"/>
<path transform="matrix(1,0,0,-1,18,80.03937)" d="M 53.31969 0 L 54.255125 0 L 54.255125 73.50236 L 53.31969 73.50236 Z " fill-rule="evenodd"/>
<path transform="matrix(1,0,0,-1,18,80.03937)" d="M 55.19055 9.6 L 57.99685 9.6 L 57.99685 73.50236 L 55.19055 73.50236 Z " fill-rule="evenodd"/>
<path transform="matrix(1,0,0,-1,18,80.03937)" d="M 59.86772 9.6 L 60.803155 9.6 L 60.803155 73.50236 L 59.86772 73.50236 Z " fill-rule="evenodd"/>
<path transform="matrix(1,0,0,-1,18,80.03937)" d="M 61.73858 9.6 L 64.544879 9.6 L 64.544879 73.50236 L 61.73858 73.50236 Z " fill-rule="evenodd"/>
<path transform="matrix(1,0,0,-1,18,80.03937)" d="M 66.41575 9.6 L 67.35118 9.6 L 67.35118 73.50236 L 66.41575 73.50236 Z " fill-rule="evenodd"/>
<path transform="matrix(1,0,0,-1,18,80.03937)" d="M 68.28661 9.6 L 71.09291 9.6 L 71.09291 73.50236 L 68.28661 73.50236 Z " fill-rule="evenodd"/>
<path transform="matrix(1,0,0,-1,18,80.03937)" d="M 72.96378 9.6 L 73.899219 9.6 L 73.899219 73.50236 L 72.96378 73.50236 Z " fill-rule="evenodd"/>
<path transform="matrix(1,0,0,-1,18,80.03937)" d="M 74.83465 9.6 L 77.640949 9.6 L 77.640949 73.50236 L 74.83465 73.50236 Z " fill-rule="evenodd"/>
<path transform="matrix(1,0,0,-1,18,80.03937)" d="M 79.51181 9.6 L 80.44724 9.6 L 80.44724 73.50236 L 79.51181 73.50236 Z " fill-rule="evenodd"/>
<path transform="matrix(1,0,0,-1,18,80.03937)" d="M 81.38268 9.6 L 84.18898 9.6 L 84.18898 73.50236 L 81.38268 73.50236 Z " fill-rule="evenodd"/>
<path transform="matrix(1,0,0,-1,18,80.03937)" d="M 86.05984 9.6 L 86.99527 9.6 L 86.99527 73.50236 L 86.05984 73.50236 Z " fill-rule="evenodd"/>
<path transform="matrix(1,0,0,-1,18,80.03937)" d="M 87.93071 9.6 L 90.73701 9.6 L 90.73701 73.50236 L 87.93071 73.50236 Z " fill-rule="evenodd"/>
<path transform="matrix(1,0,0,-1,18,80.03937)" d="M 92.60787 9.6 L 93.543308 9.6 L 93.543308 73.50236 L 92.60787 73.50236 Z " fill-rule="evenodd"/>
<path transform="matrix(1,0,0,-1,18,80.03937)" d="M 94.47874 0 L 95.41417 0 L 95.41417 73.50236 L 94.47874 73.50236 Z " fill-rule="evenodd"/>
<path transform="matrix(1,0,0,-1,18,80.03937)" d="M 96.34961 0 L 97.28504 0 L 97.28504 73.50236 L 96.34961 73.50236 Z " fill-rule="evenodd"/>
<text xml:space="preserve" transform="matrix(1 0 -0 1 18 80.03937)" font-size="8" font-family="Helvetica"><tspan y="-1.92" x=".935433">0</tspan></text>
<text xml:space="preserve" transform="matrix(1 0 -0 1 18 80.03937)" font-size="8" font-family="Helvetica"><tspan y="-1.92" x="17.52529 21.97329 26.42129 30.86929 35.31729 39.765295">000000</tspan></text>
<text xml:space="preserve" transform="matrix(1 0 -0 1 18 80.03937)" font-size="8" font-family="Helvetica"><tspan y="-1.92" x="61.49065 65.93865 70.38665 74.83465 79.282649 83.730648">000000</tspan></text>
<text xml:space="preserve" transform="matrix(0 -1 1 0 0 85.03937)" font-size="12" font-family="Helvetica"><tspan y="10" x="5 13.6640009 22.328001 30.992 34.328004 41.000005 47.672006 50.336008 53.672006 60.344007 66.34401 69.68001 73.67601">www.editus.ru</tspan></text>
</g>
</svg>
